<?xml version="1.0" encoding="UTF-8" standalone="no"?>
<svg
   version="1.1"
   id="Capa_1"
   x="0px"
   y="0px"
   width="516px"
   height="416px"
   viewBox="0 0 516 416"
   enable-background="new 0 0 516 416"
   xml:space="preserve"
   sodipodi:docname="miniIcono.svg"
   inkscape:version="1.1.2 (b8e25be833, 2022-02-05)"
   xmlns:inkscape="http://www.inkscape.org/namespaces/inkscape"
   xmlns:sodipodi="http://sodipodi.sourceforge.net/DTD/sodipodi-0.dtd"
   xmlns="http://www.w3.org/2000/svg"
   xmlns:svg="http://www.w3.org/2000/svg"><defs
     id="defs35" /><sodipodi:namedview
     id="namedview33"
     pagecolor="#ffffff"
     bordercolor="#666666"
     borderopacity="1.0"
     inkscape:pageshadow="2"
     inkscape:pageopacity="0.0"
     inkscape:pagecheckerboard="0"
     showgrid="false"
     inkscape:zoom="0.46995192"
     inkscape:cx="409.61637"
     inkscape:cy="265.98465"
     inkscape:window-width="1920"
     inkscape:window-height="986"
     inkscape:window-x="-11"
     inkscape:window-y="-11"
     inkscape:window-maximized="1"
     inkscape:current-layer="g26" /><path
     fill="none"
     d="M926.03,7.808c-205.601,0-411.199,0-616.799,0c0-107.599,0-215.2,0-322.799c205.6,0,411.199,0,616.799,0  C926.03-207.392,926.03-99.791,926.03,7.808z M574.35-196.536c-1.063,0.716-1.086,1.588-0.534,2.424  c0.93,1.411,1.813,2.905,2.994,4.084c1.824,1.821,3.125,3.855,3.828,6.327c0.383,1.342,0.942,2.633,1.399,3.955  c1.328,3.844,3.508,7.138,6.303,10.078c3.758,3.952,8.241,6.942,12.798,9.841c5.988,3.81,12.041,7.526,17.032,12.677  c0.411,0.425,0.912,0.796,1.434,1.076c3.343,1.792,6.076,0.403,6.301-3.368c0.153-2.619,0.995-4.929,2.527-6.93  c3.522-4.595,7.167-9.096,10.802-13.604c0.556-0.691,1.251-1.313,1.987-1.806c3.066-2.05,6.121-4.125,9.275-6.032  c6.054-3.661,11.437-8.06,15.563-13.852c3.112-4.367,4.829-9.184,4.155-14.643c-0.064-0.535-0.344-1.044-0.645-1.912  c-1.249,3.757-2.169,7.201-3.534,10.458c-1.818,4.335-4.491,7.354-6.982,8.385c0.312-0.892,0.511-1.623,0.813-2.307  c1.216-2.736,2.574-5.414,3.673-8.194c1.431-3.624,2.558-7.364,2.883-11.268c0.087-1.037-0.283-2.132-0.568-3.166  c-0.063-0.229-0.677-0.464-0.997-0.419c-0.309,0.043-0.665,0.4-0.815,0.708c-0.164,0.337-0.129,0.778-0.157,1.175  c-0.28,3.911-1.099,7.696-2.426,11.393c-1.266,3.526-3.147,6.686-5.415,9.629c-0.615,0.798-1.286,1.798-2.666,1.296  c0.063-2.752,1.308-4.917,2.609-7.04c0.887-1.447,1.927-2.801,2.837-4.235c1.771-2.79,1.979-5.897,0.589-8.411  c-1.626,1.059-0.16,3.907-2.889,4.691c-0.153-1.431-0.259-2.686-0.431-3.93c-0.189-1.376-0.37-2.763-0.712-4.104  c-0.106-0.424-0.719-0.721-1.594-1.534c-0.047,1.489-0.273,2.389-0.068,3.178c1.18,4.539,0.318,8.922-0.783,13.316  c-1.238,4.935-2.359,9.9-3.646,14.823c-0.318,1.224-0.924,2.439-1.662,3.468c-0.726,1.013-1.741,1.89-3.539,1.542  c0.232-3.532-0.056-7.031,2.194-10.048c1.399-1.876,2.258-3.965,2.718-6.268c0.271-1.359,0.891-2.646,1.252-3.992  c0.123-0.461-0.063-1.004-0.123-1.674c-3.046,1.205-2.177,4.798-4.412,6.331c-1.47-1.172-1.128-2.587-0.805-3.907  c0.259-1.059,0.789-2.049,1.156-3.084c0.397-1.122,0.687-2.262,0.021-3.664c-0.462,0.439-0.846,0.729-1.135,1.093  c-2.511,3.162-2.997,6.939-2.959,10.76c0.043,4.3,0.242,8.577-0.807,12.81c-0.646,2.604-1.894,4.828-3.785,6.685  c-0.353,0.345-0.961,0.426-1.986,0.85c0.678-6.787,1.777-12.999,3.528-19.103c-1.858-0.344-2.121-0.255-2.483,1.19  c-1.403,5.615-2.969,11.191-3.693,16.959c-0.425,3.378-1.101,6.708-2.961,9.67c-0.685,1.087-1.332,2.156-2.981,2.732  c0.064-1.056,0.029-1.833,0.17-2.576c1.055-5.592,2.106-11.186,3.231-16.764c1.702-8.446,4.862-16.241,10.389-22.972  c1.711-2.084,3.363-4.222,4.96-6.396c8.639-11.76,14.823-24.607,17.258-39.11c0.162-0.964,0.769-2.197-0.618-2.503  c-1.156-0.255-1.224,1.013-1.467,1.861c-1.43,4.994-2.866,9.986-4.312,14.976c-0.294,1.015-0.639,2.017-0.973,3.068  c-1.288-0.575-1.145-1.379-0.994-2.176c0.736-3.922,1.521-7.836,2.204-11.768c0.494-2.844,0.898-5.706,1.242-8.573  c0.065-0.539-0.345-1.135-0.761-2.378c-0.517,1.44-0.841,2.155-1.029,2.904c-0.928,3.675-1.889,7.343-2.697,11.045  c-0.639,2.913-1.038,5.877-1.608,8.806c-0.572,2.936-1.192,5.863-1.875,8.774c-0.108,0.466-0.656,0.829-1.109,1.369  c-0.267-0.506-0.502-0.75-0.514-1.004c-0.267-5.807-0.025-11.595,1.187-17.289c0.62-2.925,1.633-5.764,2.356-8.67  c0.604-2.418,1.091-4.868,1.534-7.321c0.209-1.159,0.211-2.363-0.896-3.318c-1.275,0.624-1.281,1.742-1.34,2.825  c-0.067,1.295-0.004,2.611-0.21,3.883c-0.185,1.141-0.495,2.371-1.982,2.58c-1.429-2.352-1.773-4.214-1.31-7.177  c0.231-1.48,0.567-2.945,0.775-4.428c0.08-0.568,0.029-1.195-0.14-1.74c-0.093-0.297-0.547-0.643-0.86-0.667  c-0.313-0.023-0.736,0.262-0.956,0.535c-0.235,0.291-0.332,0.719-0.414,1.102c-1.069,4.972-0.668,9.905,0.241,14.861  c0.43,2.338,0.558,4.743,0.67,7.125c0.044,0.921-0.333,1.862-0.6,3.202c-2.667-2.653-0.703-6.128-2.763-8.591  c-1.139,4.664-1.085,9.129,0.335,13.629c0.624,1.979,1.132,4.088,1.164,6.146c0.064,4.188-0.234,8.379-0.374,12.569  c-0.046,1.378-0.608,2.543-1.59,3.447c-0.418,0.385-1.103,0.481-1.919,0.813c0.035-0.789,0.042-1.171,0.07-1.551  c0.562-7.688,0.567-15.363-0.201-23.048c-0.896-8.944-1.96-17.896-0.436-26.895c0.231-1.361,0.144-2.794,0.061-4.186  c-0.06-0.982-0.354-1.952-1.739-2.313c-0.142,0.687-0.301,1.229-0.359,1.783c-0.22,2.077-0.146,4.224-0.659,6.223  c-1.137,4.429-1.225,8.908-1.051,13.403c0.144,3.688,0.497,7.369,0.854,11.044c0.184,1.882,0.087,3.678-0.655,5.966  c-1.534-1.979-1.926-3.782-1.979-5.678c-0.067-2.398,0.074-4.81-0.128-7.194c-0.123-1.455-0.646-2.899-1.168-4.282  c-0.147-0.396-0.908-0.563-1.391-0.835c-0.242,0.492-0.719,0.997-0.691,1.473c0.256,4.582,0.547,9.164,0.928,13.737  c0.287,3.44,1.106,6.692,3.687,9.265c2.267,2.259,2.595,5.092,2.072,8.083c-0.618,3.54-1.334,7.063-1.941,10.604  c-0.524,3.064-2.032,5.616-4.001,7.928c-0.688,0.809-1.459,1.644-2.621,1.506c-0.236-0.288-0.473-0.441-0.468-0.587  c0.126-4.206,0.431-8.335,2.95-11.996c2.429-3.527,2.266-7.564,1.729-11.576c-0.063-0.466-0.779-0.844-1.193-1.263  c-0.207,0.078-0.413,0.155-0.618,0.233c-0.085,1.656-0.134,3.314-0.263,4.967c-0.136,1.743-0.174,3.572-2.084,4.428  c-0.251-0.167-0.374-0.203-0.407-0.278c-0.156-0.36-0.348-0.72-0.42-1.099c-1.064-5.647-1.265-11.316-0.216-16.981  c0.738-3.989,0.981-7.94-0.359-11.847c-0.165-0.481-0.586-0.875-0.97-1.425c-1.371,1.244-0.837,2.547-0.741,3.788  c0.176,2.286,0.393,4.572,0.445,6.861c0.022,1.056-0.027,2.275-1.714,2.676c-0.362-0.594-0.893-1.204-1.127-1.913  c-0.279-0.841-0.265-1.775-0.453-2.652c-0.146-0.674-0.409-1.322-0.62-1.982c-0.385,1.183-0.399,2.267-0.383,3.35  c0.091,5.75,1.971,11.193,3.002,16.776c0.667,3.605,0.625,7.146,0.518,10.73c-0.021,0.717-0.399,1.424-0.765,2.64  c-2.096-5.415-2.034-10.702-3.237-15.726c-1.201-5.013-2.271-10.056-3.39-15.047c-1.288-0.026-1.7,0.626-1.772,1.479  c-0.05,0.581,0.089,1.188,0.206,1.771c0.982,4.892,2.002,9.776,2.953,14.673c0.196,1.008,0.516,2.116-0.461,3.244  c-2.157-2.567-1.605-6.015-3.459-8.892c-0.273,0.741-0.531,1.166-0.577,1.611c-0.321,3.138-0.077,6.257,1.399,9.061  c2.14,4.061,4.459,8.029,6.807,11.975c2.666,4.482,4.499,9.142,3.823,14.493c-0.16,1.268-0.228,2.546-1.747,3.688  c-0.396-1.388-0.816-2.479-1.002-3.609c-0.258-1.574-0.343-3.176-0.497-4.766c-0.085-0.888-0.115-1.802-1.24-2.193  c-1.075,0.854-1.091,2.065-1.174,3.248c-0.239,3.441,0.333,6.768,1.399,10.028c1.002,3.066,1.672,6.176,1.099,9.424  c-0.28,1.587-0.802,3.034-2.682,4.066c-0.371-1.125-0.835-2.014-0.941-2.943c-0.638-5.553-1.244-11.111-1.759-16.677  c-0.367-3.976-0.496-7.975-0.889-11.949c-0.166-1.68-0.521-3.399-1.753-4.812c-0.286,3.019-0.231,5.994-0.304,8.965  c-0.07,2.953,0.352,5.936-0.291,8.899c-0.354-0.098-0.609-0.09-0.709-0.211c-0.312-0.381-0.629-0.782-0.828-1.227  c-1.331-2.965-1.916-6.074-1.84-9.33c0.022-0.985,0.439-2.193-0.744-2.89c-0.281,0.175-0.519,0.239-0.602,0.39  c-0.188,0.34-0.403,0.714-0.431,1.087c-0.354,5.012-0.638,10.015,2.182,14.562c0.524,0.847,0.903,1.783,1.377,2.663  c1.523,2.834,2.583,5.799,3.108,9.002c0.564,3.441,1.468,6.825,2.136,10.25c0.207,1.06,0.258,2.189,0.144,3.262  c-0.121,1.139-0.988,1.809-2.113,1.669c-0.848-0.105-1.772-0.421-2.445-0.931c-2.25-1.703-2.996-4.182-2.129-6.915  c0.885-2.792,1.47-5.607,1.151-8.549c-0.063-0.586-0.057-1.27-0.362-1.713c-0.285-0.411-0.939-0.736-1.444-0.756  c-0.28-0.011-0.771,0.648-0.846,1.063c-0.173,0.976-0.12,1.99-0.219,2.983c-0.148,1.509-0.413,2.977-2.03,3.74  c-1.144-0.432-1.568-1.315-1.549-2.363c0.021-1.188,0.223-2.373,0.347-3.56c0.268-2.575,0.956-5.191,0.71-7.716  c-0.425-4.356-1.237-8.701-2.25-12.965c-0.93-3.917-0.707-7.528,1.423-10.955c2.571-4.138,3.471-8.729,3.363-13.48  c-0.104-4.488-0.533-8.972-0.908-13.451c-0.376-4.497-0.574-8.979,0.403-13.427c0.256-1.169,0.681-2.304,0.892-3.479  c0.15-0.84,0.444-2.017-0.782-2.229c-1.259-0.219-1.219,0.999-1.458,1.838c-1.813,6.346-1.638,12.844-1.563,19.346  c0.063,5.484,0.011,10.971-0.072,16.456c-0.014,0.859-0.36,1.762-0.751,2.546c-0.198,0.396-0.84,0.571-1.287,0.851  c-0.222-0.385-0.384-0.546-0.406-0.726c-0.588-4.554-1.292-9.098-1.696-13.668c-0.415-4.684-0.479-9.336,1.481-13.854  c1.365-3.144,1.31-6.63,1.264-10.031c-0.006-0.499-0.401-0.993-0.71-1.7c-2.64,2.286-0.742,5.716-2.486,8.152  c-1.092-2.182-1.254-3.105-0.869-5.365c0.486-2.853,1.012-5.699,1.538-8.545c0.486-2.625,0.181-5.188-0.647-7.688  c-0.331-1.002-0.73-2.119-2.587-1.864c0.154,1.019,0.199,1.979,0.452,2.88c0.779,2.774,0.681,5.472-0.098,8.261  c-1.241,4.445-1.636,8.998-1.247,13.626c0.375,4.477,0.606,8.966,0.848,13.454c0.055,1.025,0.298,2.141-0.429,3.084  c-1.181-0.385-1.355-1.295-1.501-2.175c-0.423-2.559-0.991-5.112-1.165-7.69c-0.33-4.881-0.38-9.781-0.632-14.669  c-0.155-2.99-0.404-5.98-0.747-8.954c-0.141-1.211-0.288-2.61-1.852-3.053c-0.832,1.463-0.792,1.457-0.574,3.05  c0.661,4.865,0.995,9.744,0.379,14.641c-0.063,0.503-0.335,0.98-0.646,1.85c-1.921-2.391-2.256-4.903-2.691-7.303  c-0.432-2.383-0.495-4.833-0.72-7.253c-0.871,0.759-1.39,1.558-1.398,2.362c-0.029,2.685-0.282,5.466,0.31,8.034  c0.754,3.277,2.204,6.401,3.436,9.56c1.702,4.371,3.647,8.648,4.187,13.398c0.116,1.02,0.693,2.091,1.334,2.927  c1.929,2.517,3.332,5.302,3.786,8.393c0.651,4.438,0.948,8.925,1.415,13.388c0.228,2.183,0.459,4.367,0.754,6.541  c0.35,2.57,0.856,5.122,1.132,7.7c0.185,1.731,0.112,3.498-0.965,5.36c-0.472-0.575-0.881-0.882-1.019-1.283  c-0.261-0.749-0.258-1.592-0.547-2.325c-2.096-5.295-2.886-10.777-2.552-16.45c0.226-3.828-0.351-7.594-1.326-11.271  c-0.597-2.249-1.21-4.569-2.815-6.389c-1.494,0.682-1.061,1.72-0.821,2.657c0.418,1.645,0.982,3.257,1.325,4.916  c0.233,1.128,0.357,2.385-1.447,3.062c-0.485-1.086-0.99-2.034-1.342-3.035c-1.074-3.054-1.537-6.232-1.332-9.446  c0.368-5.75-1.871-10.737-4.327-15.681c-0.097-0.196-0.487-0.246-0.733-0.361c-0.908,0.509-1.018,1.271-0.791,2.096  c0.264,0.961,0.538,1.932,0.936,2.843c1.51,3.446,2.198,7.022,2.091,10.795c-0.059,2.086,0.024,4.2,0.309,6.266  c0.777,5.682,2.763,11.033,4.74,16.378c1.7,4.591,3.257,9.197,4.118,14.062c0.898,5.071-0.164,5.571,4.594,11.793  c0.593,0.775,0.98,1.738,1.314,2.668c0.177,0.492,0.032,1.1,0.032,1.851c-0.649-0.098-1.167-0.056-1.563-0.256  c-1.93-0.978-3.354-2.441-4.265-4.443c-1.116-2.45-2.147-4.974-3.572-7.242c-1.648-2.624-2.151-5.304-1.658-8.295  c0.21-1.273,0.303-2.578,0.309-3.869c0.005-1.198-0.422-2.266-1.438-3.091c-1.131,1.076-0.414,3.002-2.232,3.666  c-0.336-0.359-0.923-0.706-1.055-1.179c-0.425-1.529-0.734-3.096-0.987-4.665c-0.189-1.168-0.188-2.379-1.356-2.974  c-1.231,0.278-1.162,1.154-1.198,1.933c-0.149,3.27,0.707,6.332,2.033,9.274c0.943,2.095,2.021,4.13,2.945,6.233  c0.532,1.208,1.239,2.444,0.705,3.978c-0.423-0.159-0.761-0.189-0.942-0.374c-0.485-0.497-0.927-1.041-1.345-1.598  c-3.042-4.059-4.693-8.761-6.421-13.464c-1.391-3.782-1.482-7.322,0.196-11.03c0.721-1.592,1.092-3.448,1.163-5.203  c0.091-2.183-0.612-4.23-2.605-5.9c-0.73,2.009-0.242,3.68-0.126,5.344c0.104,1.501,0.103,2.965-1.535,4.069  c-0.318-0.505-0.635-0.873-0.804-1.298c-1.375-3.456-2.47-6.967-2.204-10.77c0.064-0.931,0.338-1.999-0.678-2.757  c-1.425,0.4-1.947,1.416-2.093,2.667c-0.103,0.889-0.142,1.798-0.086,2.691c0.282,4.523,1.667,8.813,2.912,13.124  c0.354,1.228,0.835,2.407,0.704,3.809C575.762-194.118,575.727-196.066,574.35-196.536z M744.778-92.467c-0.003,0-0.008,0-0.012,0  c0-4.596,0.056-9.192-0.022-13.787c-0.039-2.355-1.795-3.513-3.829-2.539c-0.742,0.355-1.378,1.146-1.811,1.886  c-0.601,1.025-0.966,2.188-1.425,3.295c-1.337,3.227-2.584,6.494-4.041,9.667c-0.824,1.798-2.357,1.722-3.321-0.018  c-0.24-0.434-0.384-0.921-0.571-1.383c-1.427-3.516-2.817-7.048-4.307-10.537c-0.381-0.888-0.926-1.816-1.646-2.426  c-1.959-1.653-4.242-0.685-4.556,1.844c-0.073,0.591-0.044,1.197-0.044,1.796c-0.003,8.192-0.005,16.385-0.003,24.578  c0,0.599-0.023,1.205,0.051,1.796c0.223,1.762,1.123,2.533,2.768,2.435c1.507-0.09,2.229-0.806,2.298-2.537  c0.081-1.995,0.02-3.996,0.043-5.993c0.013-0.996-0.032-2.014,0.167-2.977c0.103-0.486,0.659-1.179,1.07-1.225  c0.579-0.063,1.443,0.217,1.776,0.658c0.584,0.774,0.866,1.779,1.259,2.695c0.631,1.466,1.136,3.001,1.902,4.392  c0.771,1.397,2.282,1.376,3.076-0.016c0.588-1.03,0.899-2.213,1.366-3.316c0.544-1.286,1.042-2.603,1.73-3.809  c0.226-0.396,1.022-0.724,1.491-0.648c0.464,0.074,1.055,0.623,1.208,1.089c0.24,0.733,0.198,1.572,0.211,2.367  c0.033,2.297-0.058,4.601,0.077,6.891c0.109,1.862,1.286,2.69,3.03,2.402c1.42-0.234,2.03-0.962,2.048-2.793  C744.808-83.275,744.778-87.872,744.778-92.467z M645.802-76.862c-0.216-0.624-0.339-1.097-0.538-1.536  c-0.942-2.091-1.873-4.189-2.875-6.251c-0.688-1.418-0.625-2.679,0.463-3.855c0.271-0.293,0.537-0.596,0.761-0.925  c5.202-7.711,0.693-16.773-6.221-18.804c-3.873-1.138-7.711-0.602-11.568-0.732c-1.041-0.035-1.646,0.741-1.875,1.653  c-0.191,0.759-0.187,1.58-0.187,2.373c-0.013,8.281-0.01,16.563-0.005,24.844c0.001,0.697-0.027,1.407,0.086,2.09  c0.252,1.508,1.211,2.219,2.736,2.135c1.675-0.093,2.386-0.858,2.301-3.119c-0.216-5.752,0.899-4.986,5.498-5.09  c1.739-0.04,2.838,0.729,3.534,2.223c0.548,1.175,1.042,2.375,1.596,3.546C640.828-75.521,642.585-75.061,645.802-76.862z   M599.798-109.022c-3.089,0.018-3.188,0.101-4.021,3.206c-0.62,2.313-1.276,4.616-1.878,6.934  c-1.729,6.671-3.467,13.34-5.144,20.025c-0.617,2.459,0.281,3.336,2.774,3.002c1.333-0.179,1.856-1.018,2.089-2.189  c0.285-1.44,1.231-1.912,2.612-1.887c2.098,0.038,4.199,0.065,6.296-0.016c1.771-0.069,2.988,0.232,3.54,2.294  c0.459,1.718,2.592,2.412,4.192,1.604c0.469-0.236,0.835-1.051,0.888-1.633c0.061-0.658-0.279-1.354-0.457-2.031  c-2.313-8.792-4.621-17.585-6.944-26.374C603.017-108.852,602.738-109.04,599.798-109.022z M684.312-96.102  c-0.002,0-0.005,0-0.008,0c0,3.094,0.044,6.188-0.015,9.282c-0.043,2.274,0.553,4.359,1.719,6.261  c2.21,3.604,5.547,5.636,9.705,5.373c5.212-0.329,9.231-4.585,9.789-8.705c0.173-1.282,0.327-2.578,0.335-3.868  c0.035-5.789,0.019-11.577,0.007-17.366c-0.001-0.695,0.007-1.409-0.138-2.083c-0.229-1.078-0.91-1.712-2.076-1.809  c-1.966-0.162-2.945,0.761-2.99,3.144c-0.065,3.691-0.017,7.385-0.021,11.077c-0.004,2.895,0.073,5.792-0.047,8.682  c-0.123,2.979-2.271,4.969-5.227,5.076c-3.079,0.112-5.404-1.857-5.742-4.901c-0.077-0.691-0.047-1.395-0.047-2.094  c-0.004-5.588,0-11.177-0.011-16.766c-0.001-0.796,0.014-1.606-0.121-2.386c-0.188-1.105-0.896-1.708-2.054-1.816  c-1.928-0.18-2.997,0.667-3.041,2.72C684.259-102.89,684.312-99.495,684.312-96.102z M561.451-109.018  c-2.344,0.023-2.786,0.594-2.215,2.956c0.397,1.649,0.833,3.29,1.271,4.928c2.019,7.52,4.056,15.034,6.06,22.557  c0.59,2.213,1.104,2.703,3.195,2.746c2.19,0.045,2.771-0.37,3.449-2.47c0.123-0.38,0.26-0.757,0.362-1.143  c2.318-8.785,4.635-17.57,6.945-26.357c0.152-0.577,0.384-1.173,0.348-1.745c-0.027-0.422-0.329-0.993-0.684-1.201  c-1.862-1.096-4.438-0.092-4.991,1.981c-0.721,2.701-1.288,5.442-1.963,8.156c-0.553,2.228-1.098,4.461-1.793,6.646  c-0.175,0.55-0.947,1.324-1.379,1.283c-0.652-0.062-1.478-0.615-1.812-1.198c-0.48-0.839-0.621-1.885-0.847-2.856  c-0.899-3.891-1.745-7.795-2.674-11.679C564.173-108.736,563.721-109.04,561.451-109.018z M500.854-109.02  c-2.494-0.052-2.931,0.508-2.293,3.066c0.894,3.583,1.8,7.162,2.738,10.731c1.475,5.597,2.966,11.188,4.48,16.774  c0.604,2.233,1.144,2.619,3.325,2.614c2.06-0.005,2.566-0.361,3.265-2.357c0.229-0.659,0.424-1.332,0.601-2.008  c2.186-8.3,4.37-16.6,6.533-24.906c0.2-0.767,0.35-1.571,0.339-2.355c-0.006-0.43-0.285-1.014-0.631-1.256  c-1.586-1.11-4.257-0.094-4.771,1.835c-0.667,2.504-1.214,5.04-1.828,7.559c-0.568,2.326-1.174,4.641-1.729,6.97  c-0.229,0.963-0.671,1.71-1.729,1.765c-1.251,0.064-1.708-0.819-1.954-1.866c-0.046-0.195-0.067-0.395-0.114-0.588  c-0.717-3.01-1.44-6.019-2.153-9.03c-0.366-1.554-0.639-3.134-1.089-4.663C503.302-108.584,502.691-108.982,500.854-109.02z   M664.647-109.006c0-0.002,0-0.004,0-0.006c-1.396,0-2.797-0.047-4.19,0.012c-1.693,0.072-2.366,0.696-2.608,2.251  c-0.313,1.999,0.127,3.419,1.641,3.659c2.468,0.39,2.674,1.911,2.652,3.869c-0.048,4.589-0.001,9.178-0.026,13.767  c-0.016,2.573-0.046,2.572-2.515,3.521c-1.48,0.568-1.99,1.631-1.763,3.671c0.186,1.649,0.793,2.357,2.455,2.403  c2.892,0.081,5.787,0.084,8.678-0.007c1.737-0.055,2.349-0.73,2.542-2.324c0.268-2.191-0.275-3.233-1.96-3.764  c-2.218-0.7-2.269-0.7-2.287-3.063c-0.038-4.688,0.029-9.378-0.034-14.066c-0.029-2.051,0.061-3.704,2.747-4.012  c1.396-0.161,1.857-1.747,1.53-3.732c-0.242-1.476-0.824-2.076-2.374-2.161C667.644-109.071,666.144-109.006,664.647-109.006z   M539.242-109.013c-1.4,0-2.802-0.043-4.199,0.011c-1.886,0.072-2.451,0.554-2.687,2.124c-0.332,2.211,0.12,3.543,1.783,3.853  c1.916,0.356,2.431,1.362,2.416,3.099c-0.042,4.899-0.011,9.799-0.02,14.699c-0.003,1.7-0.225,3.08-2.451,3.382  c-1.525,0.207-1.971,1.531-1.748,3.612c0.177,1.648,0.776,2.327,2.478,2.372c2.896,0.076,5.799,0.019,8.698,0.015  c0.972-0.002,1.758-0.353,2.217-1.254c1.035-2.03,0.115-4.343-2.132-4.85c-1.549-0.35-1.864-1.189-1.831-2.558  c0.063-2.499,0.041-4.999,0.041-7.499c-0.001-2.8,0.024-5.601-0.046-8.399c-0.036-1.42,0.391-2.337,1.917-2.482  c0.198-0.019,0.4-0.06,0.584-0.131c1.48-0.574,2.022-1.733,1.733-3.675c-0.244-1.636-0.854-2.231-2.556-2.307  C542.044-109.064,540.642-109.015,539.242-109.013z"
     id="path2" /><rect
     x="135"
     y="240.334"
     fill="none"
     width="297.333"
     height="43.999"
     id="rect4" /><g
     id="g26"><path
       d="m 115.329,226.145 c 4.131,1.41 4.236,7.251 9.654,6.945 0.393,-4.206 -1.047,-7.743 -2.112,-11.427 -3.735,-12.936 -7.887,-25.8 -8.736,-39.372 -0.168,-2.679 -0.051,-5.406 0.258,-8.073 0.435,-3.753 2.004,-6.801 6.276,-8.001 3.048,2.277 2.232,5.481 2.034,8.271 -0.798,11.409 2.487,21.939 6.612,32.31 0.507,1.278 1.458,2.379 2.412,3.894 4.914,-3.312 4.923,-7.701 4.605,-12.207 -0.348,-4.992 -1.812,-10.005 0.378,-16.032 5.979,5.007 8.088,11.151 7.818,17.7 -0.216,5.265 -1.329,10.83 -3.492,15.609 -5.034,11.124 -4.755,21.744 -0.588,33.09 5.187,14.109 10.137,28.215 19.263,40.392 1.254,1.671 2.577,3.303 4.035,4.794 0.543,0.555 1.56,0.645 2.826,1.122 1.605,-4.599 -0.516,-8.31 -2.115,-11.934 -2.778,-6.309 -6.006,-12.414 -8.835,-18.699 -3.978,-8.826 -6.549,-18.012 -6.099,-27.822 0.108,-2.337 -0.105,-4.965 3.594,-5.799 3.504,1.782 3.501,5.415 4.068,8.922 0.759,4.704 1.689,9.408 2.964,13.995 0.393,1.419 2.154,2.46 3.162,3.537 5.457,-1.992 3.306,-7.77 6.699,-10.998 3.051,2.475 4.332,5.679 4.314,9.273 -0.018,3.876 -0.294,7.788 -0.924,11.607 -1.485,8.973 0.027,17.013 4.974,24.885 4.275,6.804 7.368,14.376 10.716,21.726 2.733,6.006 7.002,10.395 12.795,13.329 1.185,0.6 2.736,0.474 4.686,0.768 0,-2.253 0.435,-4.077 -0.096,-5.553 -1.002,-2.79 -2.169,-5.679 -3.945,-8.004 -14.268,-18.666 -11.085,-20.166 -13.779,-35.379 -2.586,-14.592 -7.254,-28.413 -12.354,-42.186 -5.934,-16.035 -11.886,-32.088 -14.223,-49.134 -0.849,-6.195 -1.101,-12.54 -0.924,-18.798 0.321,-11.316 -1.743,-22.047 -6.273,-32.385 -1.194,-2.733 -2.016,-5.643 -2.808,-8.529 -0.678,-2.475 -0.351,-4.758 2.373,-6.288 0.738,0.345 1.911,0.498 2.202,1.083 7.371,14.829 14.085,29.79 12.981,47.043 -0.615,9.642 0.771,19.176 3.996,28.338 1.056,3.003 2.568,5.844 4.026,9.105 5.412,-2.031 5.04,-5.802 4.341,-9.186 -1.026,-4.977 -2.721,-9.813 -3.975,-14.748 -0.717,-2.811 -2.016,-5.925 2.463,-7.971 4.818,5.46 6.66,12.42 8.448,19.167 2.928,11.031 4.653,22.329 3.978,33.813 -0.999,17.019 1.371,33.462 7.653,49.35 0.87,2.196 0.861,4.728 1.641,6.975 0.414,1.203 1.641,2.124 3.057,3.849 3.231,-5.586 3.444,-10.887 2.895,-16.08 -0.825,-7.734 -2.346,-15.387 -3.396,-23.1 -0.885,-6.522 -1.578,-13.074 -2.262,-19.623 -1.401,-13.389 -2.292,-26.856 -4.245,-40.164 -1.362,-9.273 -5.568,-17.628 -11.358,-25.179 -1.923,-2.508 -3.654,-5.721 -4.002,-8.781 -1.617,-14.25 -7.452,-27.081 -12.561,-40.194 -3.69,-9.477 -8.04,-18.846 -10.305,-28.68 -1.776,-7.704 -1.017,-16.05 -0.93,-24.102 0.027,-2.415 1.584,-4.812 4.197,-7.086 0.672,7.26 0.864,14.61 2.157,21.759 1.308,7.197 2.313,14.736 8.076,21.909 0.933,-2.607 1.749,-4.041 1.938,-5.55 1.851,-14.691 0.846,-29.328 -1.137,-43.923 -0.651,-4.779 -0.768,-4.761 1.725,-9.15 4.689,1.329 5.133,5.526 5.553,9.159 1.026,8.922 1.776,17.892 2.241,26.862 0.756,14.664 0.906,29.364 1.896,44.007 0.522,7.734 2.226,15.396 3.495,23.07 0.438,2.64 0.96,5.37 4.503,6.525 2.181,-2.829 1.452,-6.177 1.287,-9.252 -0.723,-13.461 -1.419,-26.931 -2.544,-40.362 -1.164,-13.887 0.018,-27.543 3.741,-40.878 2.337,-8.367 2.628,-16.458 0.294,-24.783 -0.759,-2.703 -0.894,-5.583 -1.356,-8.64 5.568,-0.765 6.768,2.586 7.761,5.592 2.484,7.5 3.402,15.192 1.941,23.064 -1.578,8.538 -3.156,17.076 -4.614,25.635 -1.155,6.78 -0.669,9.552 2.607,16.095 5.232,-7.308 -0.456,-17.598 7.461,-24.456 0.924,2.121 2.112,3.603 2.13,5.1 0.135,10.2 0.306,20.661 -3.792,30.093 -5.886,13.554 -5.691,27.51 -4.446,41.562 1.215,13.713 3.327,27.345 5.091,41.004 0.066,0.54 0.555,1.023 1.218,2.178 1.341,-0.837 3.267,-1.365 3.861,-2.553 1.173,-2.352 2.211,-5.061 2.253,-7.638 0.249,-16.455 0.405,-32.916 0.216,-49.368 -0.225,-19.506 -0.753,-39 4.689,-58.038 0.717,-2.517 0.597,-6.171 4.374,-5.514 3.681,0.636 2.799,4.167 2.346,6.687 -0.633,3.525 -1.908,6.93 -2.676,10.437 -2.934,13.344 -2.337,26.79 -1.209,40.281 1.125,13.437 2.418,26.886 2.724,40.353 0.321,14.259 -2.376,28.026 -10.089,40.44 -6.39,10.281 -7.059,21.114 -4.269,32.865 3.039,12.792 5.475,25.827 6.75,38.895 0.738,7.575 -1.326,15.423 -2.13,23.148 -0.372,3.561 -0.975,7.113 -1.041,10.68 -0.06,3.144 1.218,5.796 4.647,7.089 4.851,-2.289 5.646,-6.69 6.093,-11.22 0.294,-2.979 0.135,-6.021 0.654,-8.949 0.222,-1.245 1.695,-3.222 2.538,-3.189 1.515,0.063 3.477,1.035 4.332,2.268 0.921,1.329 0.9,3.381 1.089,5.139 0.951,8.826 -0.804,17.271 -3.456,25.647 -2.601,8.199 -0.363,15.636 6.387,20.745 2.019,1.533 4.797,2.478 7.338,2.796 3.375,0.423 5.976,-1.59 6.339,-5.007 0.342,-3.216 0.189,-6.606 -0.432,-9.789 -2.004,-10.275 -4.71,-20.43 -6.405,-30.75 -1.578,-9.612 -4.755,-18.504 -9.327,-27.006 -1.422,-2.64 -2.556,-5.448 -4.131,-7.989 -8.454,-13.638 -7.602,-28.647 -6.543,-43.683 0.078,-1.119 0.723,-2.244 1.29,-3.261 0.249,-0.45 0.96,-0.645 1.806,-1.17 3.552,2.091 2.301,5.712 2.232,8.67 -0.228,9.768 1.527,19.095 5.52,27.99 0.597,1.335 1.551,2.538 2.484,3.681 0.297,0.363 1.065,0.339 2.127,0.633 1.926,-8.889 0.663,-17.838 0.873,-26.697 0.213,-8.916 0.051,-17.841 0.912,-26.895 3.693,4.239 4.761,9.393 5.259,14.436 1.176,11.922 1.563,23.919 2.664,35.847 1.545,16.698 3.363,33.372 5.277,50.031 0.318,2.787 1.71,5.454 2.823,8.829 5.64,-3.096 7.203,-7.437 8.046,-12.198 1.719,-9.747 -0.291,-19.074 -3.297,-28.272 -3.198,-9.78 -4.917,-19.761 -4.197,-30.084 0.249,-3.549 0.297,-7.182 3.522,-9.744 3.375,1.173 3.465,3.915 3.72,6.579 0.462,4.77 0.717,9.576 1.491,14.298 0.558,3.39 1.818,6.663 3.006,10.827 4.563,-3.426 4.761,-7.26 5.241,-11.064 2.028,-16.053 -3.471,-30.033 -11.469,-43.479 -7.044,-11.838 -14.001,-23.745 -20.421,-35.925 -4.431,-8.412 -5.163,-17.766 -4.197,-27.183 0.138,-1.338 0.912,-2.61 1.731,-4.833 5.559,8.628 3.906,18.975 10.377,26.676 2.928,-3.384 1.971,-6.708 1.383,-9.732 -2.853,-14.691 -5.913,-29.346 -8.859,-44.019 -0.351,-1.746 -0.768,-3.567 -0.618,-5.31 0.216,-2.562 1.452,-4.515 5.316,-4.437 3.357,14.976 6.564,30.105 10.17,45.141 3.609,15.069 3.426,30.933 9.711,47.178 1.092,-3.648 2.226,-5.769 2.295,-7.92 0.321,-10.755 0.447,-21.375 -1.554,-32.19 -3.093,-16.749 -8.733,-33.081 -9.006,-50.328 -0.036,-2.19 -1.692,-6.771 0.567,-8.268 0.642,1.122 1.236,2.424 1.764,3.639 1.203,2.766 1.059,5.868 2.106,8.673 0.762,2.046 2.19,3.702 3.312,5.547 5.061,-1.203 5.211,-4.86 5.142,-8.028 -0.162,-6.87 -0.81,-13.728 -1.335,-20.583 -0.255,-3.321 -1.767,-9.378 2.238,-11.229 4.458,4.635 5.259,12.306 5.655,18.402 0.465,7.122 -0.39,14.283 -1.686,21.279 -3.147,16.995 -2.547,34.002 0.651,50.943 0.213,1.137 0.792,2.217 1.26,3.297 0.099,0.228 0.468,0.336 1.218,0.834 5.73,-2.565 5.844,-8.055 6.252,-13.284 0.387,-4.959 0.534,-9.936 0.792,-14.901 0.615,-0.234 1.23,-0.465 1.851,-0.699 1.242,1.257 3.399,2.391 3.579,3.789 1.605,12.036 2.097,24.147 -5.187,34.728 -7.563,10.983 -8.472,23.37 -8.85,35.988 -0.015,0.438 0.687,0.897 1.401,1.761 3.489,0.414 5.805,-2.091 7.866,-4.518 5.907,-6.939 10.431,-14.589 12.003,-23.784 1.818,-10.626 3.969,-21.192 5.82,-31.812 1.566,-8.973 0.579,-17.472 -6.213,-24.249 -7.737,-7.716 -10.197,-17.475 -11.061,-27.795 -0.753,-9.039 -1.365,-18.084 -1.953,-27.135 -0.216,-3.315 -0.555,-6.588 -0.849,-9.891 -0.216,-2.451 -0.468,-6.906 2.229,-8.268 2.181,-1.101 3.429,0.969 4.281,2.679 1.911,3.822 2.901,8.094 3.261,12.339 0.606,7.152 0.183,14.388 0.381,21.582 0.159,5.688 1.332,11.097 5.937,17.034 2.223,-6.864 2.517,-12.252 1.965,-17.898 -1.065,-11.025 -2.133,-22.068 -2.562,-33.132 -0.522,-13.485 -0.258,-26.922 3.15,-40.209 1.539,-5.997 1.32,-12.438 1.98,-18.669 0.18,-1.662 0.654,-3.291 1.074,-5.349 4.158,1.083 5.046,3.993 5.22,6.939 0.246,4.173 0.516,8.472 -0.183,12.558 -4.575,26.994 -1.38,53.85 1.308,80.682 2.31,23.055 2.289,46.077 0.6,69.144 -0.084,1.14 -0.102,2.286 -0.207,4.653 2.448,-0.993 4.5,-1.284 5.754,-2.439 2.943,-2.709 4.635,-6.204 4.773,-10.341 0.42,-12.57 1.314,-25.146 1.122,-37.707 -0.096,-6.174 -1.62,-12.495 -3.492,-18.438 -4.26,-13.5 -4.425,-26.898 -1.005,-40.887 6.177,7.389 0.288,17.814 8.289,25.773 0.798,-4.02 1.929,-6.843 1.8,-9.606 -0.336,-7.146 -0.72,-14.358 -2.01,-21.375 -2.73,-14.868 -3.936,-29.667 -0.726,-44.583 0.246,-1.149 0.54,-2.433 1.242,-3.306 0.663,-0.819 1.938,-1.677 2.871,-1.605 0.939,0.072 2.307,1.107 2.58,2.001 0.507,1.635 0.66,3.516 0.42,5.22 -0.627,4.449 -1.635,8.844 -2.325,13.284 -1.395,8.889 -0.357,14.475 3.927,21.531 4.464,-0.627 5.397,-4.317 5.949,-7.74 0.618,-3.816 0.426,-7.764 0.63,-11.649 0.177,-3.249 0.189,-6.606 4.02,-8.475 3.321,2.865 3.315,6.477 2.688,9.954 -1.329,7.359 -2.799,14.709 -4.602,21.963 -2.178,8.718 -5.208,17.235 -7.071,26.01 -3.633,17.082 -4.356,34.443 -3.561,51.867 0.039,0.762 0.744,1.494 1.545,3.012 1.359,-1.62 3.003,-2.709 3.324,-4.107 2.052,-8.733 3.912,-17.517 5.625,-26.322 1.71,-8.787 2.916,-17.679 4.827,-26.418 2.427,-11.106 5.313,-22.11 8.091,-33.135 0.564,-2.25 1.542,-4.392 3.087,-8.712 1.248,3.729 2.478,5.517 2.283,7.134 -1.035,8.601 -2.244,17.187 -3.726,25.719 -2.055,11.793 -4.404,23.535 -6.615,35.304 -0.447,2.391 -0.879,4.806 2.985,6.528 1.002,-3.153 2.034,-6.159 2.919,-9.204 4.332,-14.967 8.643,-29.943 12.936,-44.928 0.729,-2.544 0.93,-6.348 4.401,-5.583 4.158,0.918 2.34,4.617 1.854,7.509 -7.308,43.509 -25.857,82.053 -51.774,117.33 -4.794,6.522 -9.747,12.933 -14.88,19.188 -16.575,20.193 -26.061,43.578 -31.17,68.916 -3.375,16.737 -6.531,33.516 -9.69,50.292 -0.423,2.229 -0.315,4.56 -0.51,7.728 4.947,-1.728 6.894,-4.935 8.94,-8.196 5.583,-8.886 7.611,-18.876 8.883,-29.01 2.181,-17.307 6.873,-34.035 11.082,-50.877 1.086,-4.338 1.875,-4.605 7.449,-3.57 -5.256,18.312 -8.556,36.948 -10.584,57.309 3.072,-1.272 4.905,-1.515 5.955,-2.55 5.682,-5.571 9.423,-12.243 11.355,-20.055 3.147,-12.696 2.553,-25.53 2.424,-38.43 -0.114,-11.463 1.344,-22.794 8.877,-32.28 0.867,-1.092 2.019,-1.959 3.405,-3.279 1.992,4.206 1.128,7.626 -0.066,10.992 -1.098,3.105 -2.688,6.075 -3.465,9.252 -0.969,3.957 -1.995,8.202 2.415,11.721 6.705,-4.599 4.098,-15.375 13.236,-18.993 0.18,2.007 0.738,3.639 0.369,5.022 -1.08,4.038 -2.937,7.899 -3.756,11.976 -1.38,6.909 -3.951,13.173 -8.154,18.804 -6.75,9.051 -5.889,19.548 -6.582,30.144 5.394,1.044 8.439,-1.584 10.617,-4.626 2.211,-3.087 4.032,-6.732 4.986,-10.404 3.852,-14.769 7.215,-29.664 10.938,-44.469 3.309,-13.185 5.889,-26.331 2.349,-39.948 -0.615,-2.367 0.063,-5.067 0.204,-9.534 2.625,2.439 4.458,3.33 4.782,4.602 1.026,4.026 1.563,8.187 2.136,12.312 0.516,3.735 0.828,7.497 1.293,11.79 8.187,-2.352 3.786,-10.896 8.667,-14.073 4.17,7.542 3.546,16.863 -1.77,25.233 -2.727,4.302 -5.847,8.364 -8.508,12.705 -3.909,6.372 -7.641,12.864 -7.827,21.12 4.14,1.506 6.153,-1.494 7.998,-3.888 6.804,-8.829 12.444,-18.309 16.245,-28.887 3.981,-11.091 6.438,-22.446 7.278,-34.179 0.084,-1.191 -0.021,-2.514 0.471,-3.525 0.45,-0.927 1.524,-1.995 2.442,-2.124 0.963,-0.135 2.808,0.57 2.994,1.257 0.855,3.102 1.965,6.384 1.704,9.498 -0.975,11.712 -4.356,22.935 -8.649,33.804 -3.3,8.343 -7.371,16.374 -11.022,24.582 -0.909,2.052 -1.506,4.248 -2.439,6.921 7.473,-3.09 15.492,-12.15 20.946,-25.155 4.095,-9.771 6.855,-20.103 10.602,-31.374 0.903,2.604 1.734,4.131 1.935,5.736 2.022,16.374 -3.129,30.828 -12.465,43.929 -12.384,17.376 -28.533,30.573 -46.692,41.556 -9.459,5.724 -18.627,11.946 -27.822,18.096 -2.211,1.482 -4.299,3.345 -5.961,5.418 -10.905,13.524 -21.834,27.027 -32.406,40.812 -4.599,6.003 -7.122,12.939 -7.584,20.79 -0.672,11.313 -8.874,15.477 -18.9,10.104 -1.563,-0.834 -3.066,-1.953 -4.302,-3.225 -14.973,-15.453 -33.132,-26.607 -51.096,-38.034 -13.671,-8.697 -27.12,-17.667 -38.394,-29.523 -8.382,-8.82 -14.925,-18.702 -18.909,-30.234 -1.371,-3.966 -3.054,-7.839 -4.197,-11.865 -2.112,-7.413 -6.012,-13.518 -11.484,-18.981 -3.546,-3.537 -6.192,-8.019 -8.985,-12.252 -1.641,-2.523 -1.572,-5.139 1.617,-7.287 z"
       id="path6"
       style="stroke-width:3" /></g><rect
     x="-246.167"
     y="192.5"
     fill="none"
     width="282.667"
     height="32"
     id="rect28" /><text
     transform="matrix(1 0 0 1 -246.1665 205.2251)"
     font-family="'Corbel'"
     font-size="18"
     letter-spacing="3"
     id="text30">MEDITERRÁNEO</text></svg>
