<?xml version="1.0" encoding="utf-8"?>
<!-- Generator: Adobe Illustrator 16.0.0, SVG Export Plug-In . SVG Version: 6.00 Build 0)  -->
<!DOCTYPE svg PUBLIC "-//W3C//DTD SVG 1.1//EN" "http://www.w3.org/Graphics/SVG/1.1/DTD/svg11.dtd">
<svg version="1.1" id="Capa_1" xmlns="http://www.w3.org/2000/svg" xmlns:xlink="http://www.w3.org/1999/xlink" x="0px" y="0px"
	 width="57px" height="48px" viewBox="0 0 57 48" enable-background="new 0 0 57 48" xml:space="preserve">
<g>
	<path fill="#FFFFFF" d="M28.307,10.08c-8.075,0-14.621,6.547-14.621,14.621c0,7.299,5.347,13.348,12.337,14.443V28.928H22.31
		v-4.227h3.713V21.48c0-3.664,2.183-5.689,5.522-5.689c1.6,0,3.273,0.286,3.273,0.286v3.599h-1.844
		c-1.816,0-2.383,1.127-2.383,2.283v2.742h4.055l-0.648,4.227h-3.406v10.217C37.582,38.049,42.928,32,42.928,24.701
		C42.928,16.627,36.382,10.08,28.307,10.08z"/>
</g>
</svg>
