<?xml version="1.0" encoding="utf-8"?>
<!-- Generator: Adobe Illustrator 16.0.0, SVG Export Plug-In . SVG Version: 6.00 Build 0)  -->
<!DOCTYPE svg PUBLIC "-//W3C//DTD SVG 1.1//EN" "http://www.w3.org/Graphics/SVG/1.1/DTD/svg11.dtd">
<svg version="1.1" id="Capa_1" xmlns="http://www.w3.org/2000/svg" xmlns:xlink="http://www.w3.org/1999/xlink" x="0px" y="0px"
	 width="57px" height="48px" viewBox="0 0 57 48" enable-background="new 0 0 57 48" xml:space="preserve">
<g>
	<path fill="#FFFFFF" d="M31.845,15.803H25c-1.95,0-3.536,1.586-3.536,3.536v6.845c0,1.95,1.586,3.536,3.536,3.536h6.845
		c1.95,0,3.537-1.586,3.537-3.536v-6.845C35.382,17.389,33.795,15.803,31.845,15.803z M28.493,26.983
		c-2.328,0-4.222-1.895-4.222-4.222c0-2.328,1.894-4.223,4.222-4.223s4.222,1.895,4.222,4.223
		C32.715,25.089,30.821,26.983,28.493,26.983z M32.961,19.261c-0.555,0-1.005-0.45-1.005-1.005s0.45-1.006,1.005-1.006
		c0.556,0,1.006,0.451,1.006,1.006S33.517,19.261,32.961,19.261z"/>
	<path fill="#FFFFFF" d="M28.423,8.16c-8.075,0-14.621,6.547-14.621,14.621c0,8.075,6.546,14.622,14.621,14.622
		s14.621-6.547,14.621-14.622C43.044,14.707,36.498,8.16,28.423,8.16z M36.994,26.184c0,2.839-2.31,5.149-5.149,5.149H25
		c-2.839,0-5.149-2.311-5.149-5.149v-6.845c0-2.839,2.311-5.149,5.149-5.149h6.845c2.84,0,5.149,2.311,5.149,5.149V26.184z"/>
	<path fill="#FFFFFF" d="M28.493,20.057c-1.491,0-2.704,1.213-2.704,2.705c0,1.49,1.213,2.704,2.704,2.704s2.704-1.214,2.704-2.704
		C31.197,21.27,29.984,20.057,28.493,20.057z"/>
</g>
</svg>
