<?xml version="1.0" encoding="utf-8"?>
<!-- Generator: Adobe Illustrator 16.0.0, SVG Export Plug-In . SVG Version: 6.00 Build 0)  -->
<!DOCTYPE svg PUBLIC "-//W3C//DTD SVG 1.1//EN" "http://www.w3.org/Graphics/SVG/1.1/DTD/svg11.dtd">
<svg version="1.1" id="Capa_1" xmlns="http://www.w3.org/2000/svg" xmlns:xlink="http://www.w3.org/1999/xlink" x="0px" y="0px"
	 width="57px" height="48px" viewBox="0 0 57 48" enable-background="new 0 0 57 48" xml:space="preserve">
<path fill="#FFFFFF" d="M29.583,9.009c-8.076,0-14.621,6.547-14.621,14.622c0,8.074,6.545,14.621,14.621,14.621
	c8.074,0,14.621-6.547,14.621-14.621C44.204,15.556,37.657,9.009,29.583,9.009z M26.282,30.004H23.45v-9.097h2.832V30.004z
	 M24.868,19.666c-0.908,0-1.643-0.736-1.643-1.641s0.734-1.639,1.643-1.639c0.904,0,1.639,0.734,1.639,1.639
	S25.772,19.666,24.868,19.666z M36.874,30.004h-2.824V25.58c0-1.055-0.021-2.412-1.471-2.412c-1.471,0-1.695,1.15-1.695,2.336v4.5
	h-2.826v-9.097h2.711v1.244h0.037c0.379-0.716,1.301-1.47,2.678-1.47c2.863,0,3.391,1.883,3.391,4.332V30.004z"/>
</svg>
