<?xml version="1.0" encoding="utf-8"?>
<!-- Generator: Adobe Illustrator 16.0.0, SVG Export Plug-In . SVG Version: 6.00 Build 0)  -->
<!DOCTYPE svg PUBLIC "-//W3C//DTD SVG 1.1//EN" "http://www.w3.org/Graphics/SVG/1.1/DTD/svg11.dtd">
<svg version="1.1" id="Capa_1" xmlns="http://www.w3.org/2000/svg" xmlns:xlink="http://www.w3.org/1999/xlink" x="0px" y="0px"
	 width="57px" height="48px" viewBox="0 0 57 48" enable-background="new 0 0 57 48" xml:space="preserve">
<g>
	<path fill-rule="evenodd" clip-rule="evenodd" fill="#FFFFFF" d="M27.863,16.424c-3.756,0-6.812,3.057-6.812,6.813
		c0,1.24,0.345,2.461,0.996,3.531l0.177,0.289l-0.681,2.539l2.555-0.684l0.287,0.172c1.058,0.629,2.26,0.963,3.478,0.963
		c3.755,0,6.811-3.057,6.811-6.811C34.673,19.48,31.618,16.424,27.863,16.424z M31.863,25.809c-0.253,0.615-0.883,1.01-1.521,1.131
		c-0.61,0.115-1.113-0.078-1.678-0.266c-0.504-0.166-0.99-0.408-1.441-0.686c-0.904-0.553-1.685-1.293-2.312-2.145
		c-0.192-0.262-0.369-0.531-0.533-0.811c-0.217-0.371-0.409-0.76-0.511-1.178c-0.042-0.172-0.063-0.352-0.065-0.531
		c-0.008-0.633,0.233-1.27,0.733-1.678c0.289-0.234,0.718-0.338,1.043-0.154c0.354,0.199,0.536,0.703,0.7,1.057
		c0.128,0.275,0.273,0.639,0.221,0.949c-0.053,0.309-0.298,0.57-0.493,0.801c-0.133,0.156-0.152,0.287-0.043,0.455
		c0.647,1.078,1.546,1.861,2.719,2.33c0.16,0.063,0.284,0.043,0.388-0.084c0.202-0.25,0.402-0.74,0.714-0.867
		c0.407-0.166,0.857,0.064,1.203,0.271c0.321,0.191,0.86,0.428,0.947,0.826C31.976,25.422,31.938,25.625,31.863,25.809z"/>
	<path fill-rule="evenodd" clip-rule="evenodd" fill="#FFFFFF" d="M27.199,8.945c-8.075,0-14.622,6.547-14.622,14.621
		c0,8.076,6.547,14.623,14.622,14.623c8.074,0,14.621-6.547,14.621-14.623C41.82,15.492,35.273,8.945,27.199,8.945z M27.863,31.635
		c-1.391,0-2.764-0.352-3.992-1.018l-4.572,1.225l1.22-4.549c-0.69-1.246-1.054-2.641-1.054-4.057c0-4.631,3.768-8.398,8.398-8.398
		s8.398,3.768,8.398,8.398S32.494,31.635,27.863,31.635z"/>
</g>
</svg>
