<svg width="260" height="173" viewBox="0 0 260 173" fill="none" xmlns="http://www.w3.org/2000/svg">
<path d="M80.4491 72.779C81.8261 73.249 81.8611 75.196 83.6671 75.094C83.7981 73.692 83.3181 72.513 82.9631 71.285C81.7181 66.973 80.3341 62.685 80.0511 58.161C79.9951 57.268 80.0341 56.359 80.1371 55.47C80.2821 54.219 80.8051 53.203 82.2291 52.803C83.2451 53.562 82.9731 54.63 82.9071 55.56C82.6411 59.363 83.7361 62.873 85.1111 66.33C85.2801 66.756 85.5971 67.123 85.9151 67.628C87.5531 66.524 87.5561 65.061 87.4501 63.559C87.3341 61.895 86.8461 60.224 87.5761 58.215C89.5691 59.884 90.2721 61.932 90.1821 64.115C90.1101 65.87 89.7391 67.725 89.0181 69.318C87.3401 73.026 87.4331 76.566 88.8221 80.348C90.5511 85.051 92.2011 89.753 95.2431 93.812C95.6611 94.369 96.1021 94.913 96.5881 95.41C96.7691 95.595 97.1081 95.625 97.5301 95.784C98.0651 94.251 97.3581 93.014 96.8251 91.806C95.8991 89.703 94.8231 87.668 93.8801 85.573C92.5541 82.631 91.6971 79.569 91.8471 76.299C91.8831 75.52 91.8121 74.644 93.0451 74.366C94.2131 74.96 94.2121 76.171 94.4011 77.34C94.6541 78.908 94.9641 80.476 95.3891 82.005C95.5201 82.478 96.1071 82.825 96.4431 83.184C98.2621 82.52 97.5451 80.594 98.6761 79.518C99.6931 80.343 100.12 81.411 100.114 82.609C100.108 83.901 100.016 85.205 99.8061 86.478C99.3111 89.469 99.8151 92.149 101.464 94.773C102.889 97.041 103.92 99.565 105.036 102.015C105.947 104.017 107.37 105.48 109.301 106.458C109.696 106.658 110.213 106.616 110.863 106.714C110.863 105.963 111.008 105.355 110.831 104.863C110.497 103.933 110.108 102.97 109.516 102.195C104.76 95.973 105.821 95.473 104.923 90.402C104.061 85.538 102.505 80.931 100.805 76.34C98.8271 70.995 96.8431 65.644 96.0641 59.962C95.7811 57.897 95.6971 55.782 95.7561 53.696C95.8631 49.924 95.1751 46.347 93.6651 42.901C93.2671 41.99 92.9931 41.02 92.7291 40.058C92.5031 39.233 92.6121 38.472 93.5201 37.962C93.7661 38.077 94.1571 38.128 94.2541 38.323C96.7111 43.266 98.9491 48.253 98.5811 54.004C98.3761 57.218 98.8381 60.396 99.9131 63.45C100.265 64.451 100.769 65.398 101.255 66.485C103.059 65.808 102.935 64.551 102.702 63.423C102.36 61.764 101.795 60.152 101.377 58.507C101.138 57.57 100.705 56.532 102.198 55.85C103.804 57.67 104.418 59.99 105.014 62.239C105.99 65.916 106.565 69.682 106.34 73.51C106.007 79.183 106.797 84.664 108.891 89.96C109.181 90.692 109.178 91.536 109.438 92.285C109.576 92.686 109.985 92.993 110.457 93.568C111.534 91.706 111.605 89.939 111.422 88.208C111.147 85.63 110.64 83.079 110.29 80.508C109.995 78.334 109.764 76.15 109.536 73.967C109.069 69.504 108.772 65.015 108.121 60.579C107.667 57.488 106.265 54.703 104.335 52.186C103.694 51.35 103.117 50.279 103.001 49.259C102.462 44.509 100.517 40.232 98.8141 35.861C97.5841 32.702 96.1341 29.579 95.3791 26.301C94.7871 23.733 95.0401 20.951 95.0691 18.267C95.0781 17.462 95.5971 16.663 96.4681 15.905C96.6921 18.325 96.7561 20.775 97.1871 23.158C97.6231 25.557 97.9581 28.07 99.8791 30.461C100.19 29.592 100.462 29.114 100.525 28.611C101.142 23.714 100.807 18.835 100.146 13.97C99.9291 12.377 99.8901 12.383 100.721 10.92C102.284 11.363 102.432 12.762 102.572 13.973C102.914 16.947 103.164 19.937 103.319 22.927C103.571 27.815 103.621 32.715 103.951 37.596C104.125 40.174 104.693 42.728 105.116 45.286C105.262 46.166 105.436 47.076 106.617 47.461C107.344 46.518 107.101 45.402 107.046 44.377C106.805 39.89 106.573 35.4 106.198 30.923C105.81 26.294 106.204 21.742 107.445 17.297C108.224 14.508 108.321 11.811 107.543 9.036C107.29 8.135 107.245 7.175 107.091 6.156C108.947 5.901 109.347 7.018 109.678 8.02C110.506 10.52 110.812 13.084 110.325 15.708C109.799 18.554 109.273 21.4 108.787 24.253C108.402 26.513 108.564 27.437 109.656 29.618C111.4 27.182 109.504 23.752 112.143 21.466C112.451 22.173 112.847 22.667 112.853 23.166C112.898 26.566 112.955 30.053 111.589 33.197C109.627 37.715 109.692 42.367 110.107 47.051C110.512 51.622 111.216 56.166 111.804 60.719C111.826 60.899 111.989 61.06 112.21 61.445C112.657 61.166 113.299 60.99 113.497 60.594C113.888 59.81 114.234 58.907 114.248 58.048C114.331 52.563 114.383 47.076 114.32 41.592C114.245 35.09 114.069 28.592 115.883 22.246C116.122 21.407 116.082 20.189 117.341 20.408C118.568 20.62 118.274 21.797 118.123 22.637C117.912 23.812 117.487 24.947 117.231 26.116C116.253 30.564 116.452 35.046 116.828 39.543C117.203 44.022 117.634 48.505 117.736 52.994C117.843 57.747 116.944 62.336 114.373 66.474C112.243 69.901 112.02 73.512 112.95 77.429C113.963 81.693 114.775 86.038 115.2 90.394C115.446 92.919 114.758 95.535 114.49 98.11C114.366 99.297 114.165 100.481 114.143 101.67C114.123 102.718 114.549 103.602 115.692 104.033C117.309 103.27 117.574 101.803 117.723 100.293C117.821 99.3 117.768 98.286 117.941 97.31C118.015 96.895 118.506 96.236 118.787 96.247C119.292 96.268 119.946 96.592 120.231 97.003C120.538 97.446 120.531 98.13 120.594 98.716C120.911 101.658 120.326 104.473 119.442 107.265C118.575 109.998 119.321 112.477 121.571 114.18C122.244 114.691 123.17 115.006 124.017 115.112C125.142 115.253 126.009 114.582 126.13 113.443C126.244 112.371 126.193 111.241 125.986 110.18C125.318 106.755 124.416 103.37 123.851 99.93C123.325 96.726 122.266 93.762 120.742 90.928C120.268 90.048 119.89 89.112 119.365 88.265C116.547 83.719 116.831 78.716 117.184 73.704C117.21 73.331 117.425 72.956 117.614 72.617C117.697 72.467 117.934 72.402 118.216 72.227C119.4 72.924 118.983 74.131 118.96 75.117C118.884 78.373 119.469 81.482 120.8 84.447C120.999 84.892 121.317 85.293 121.628 85.674C121.727 85.795 121.983 85.787 122.337 85.885C122.979 82.922 122.558 79.939 122.628 76.986C122.699 74.014 122.645 71.039 122.932 68.021C124.163 69.434 124.519 71.152 124.685 72.833C125.077 76.807 125.206 80.806 125.573 84.782C126.088 90.348 126.694 95.906 127.332 101.459C127.438 102.388 127.902 103.277 128.273 104.402C130.153 103.37 130.674 101.923 130.955 100.336C131.528 97.087 130.858 93.978 129.856 90.912C128.79 87.652 128.217 84.325 128.457 80.884C128.54 79.701 128.556 78.49 129.631 77.636C130.756 78.027 130.786 78.941 130.871 79.829C131.025 81.419 131.11 83.021 131.368 84.595C131.554 85.725 131.974 86.816 132.37 88.204C133.891 87.062 133.957 85.784 134.117 84.516C134.793 79.165 132.96 74.505 130.294 70.023C127.946 66.077 125.627 62.108 123.487 58.048C122.01 55.244 121.766 52.126 122.088 48.987C122.134 48.541 122.392 48.117 122.665 47.376C124.518 50.252 123.967 53.701 126.124 56.268C127.1 55.14 126.781 54.032 126.585 53.024C125.634 48.127 124.614 43.242 123.632 38.351C123.515 37.769 123.376 37.162 123.426 36.581C123.498 35.727 123.91 35.076 125.198 35.102C126.317 40.094 127.386 45.137 128.588 50.149C129.791 55.172 129.73 60.46 131.825 65.875C132.189 64.659 132.567 63.952 132.59 63.235C132.697 59.65 132.739 56.11 132.072 52.505C131.041 46.922 129.161 41.478 129.07 35.729C129.058 34.999 128.506 33.472 129.259 32.973C129.473 33.347 129.671 33.781 129.847 34.186C130.248 35.108 130.2 36.142 130.549 37.077C130.803 37.759 131.279 38.311 131.653 38.926C133.34 38.525 133.39 37.306 133.367 36.25C133.313 33.96 133.097 31.674 132.922 29.389C132.837 28.282 132.333 26.263 133.668 25.646C135.154 27.191 135.421 29.748 135.553 31.78C135.708 34.154 135.423 36.541 134.991 38.873C133.942 44.538 134.142 50.207 135.208 55.854C135.279 56.233 135.472 56.593 135.628 56.953C135.661 57.029 135.784 57.065 136.034 57.231C137.944 56.376 137.982 54.546 138.118 52.803C138.247 51.15 138.296 49.491 138.382 47.836C138.587 47.758 138.792 47.681 138.999 47.603C139.413 48.022 140.132 48.4 140.192 48.866C140.727 52.878 140.891 56.915 138.463 60.442C135.942 64.103 135.639 68.232 135.513 72.438C135.508 72.584 135.742 72.737 135.98 73.025C137.143 73.163 137.915 72.328 138.602 71.519C140.571 69.206 142.079 66.656 142.603 63.591C143.209 60.049 143.926 56.527 144.543 52.987C145.065 49.996 144.736 47.163 142.472 44.904C139.893 42.332 139.073 39.079 138.785 35.639C138.534 32.626 138.33 29.611 138.134 26.594C138.062 25.489 137.949 24.398 137.851 23.297C137.779 22.48 137.695 20.995 138.594 20.541C139.321 20.174 139.737 20.864 140.021 21.434C140.658 22.708 140.988 24.132 141.108 25.547C141.31 27.931 141.169 30.343 141.235 32.741C141.288 34.637 141.679 36.44 143.214 38.419C143.955 36.131 144.053 34.335 143.869 32.453C143.514 28.778 143.158 25.097 143.015 21.409C142.841 16.914 142.929 12.435 144.065 8.006C144.578 6.007 144.505 3.86 144.725 1.783C144.785 1.229 144.943 0.686 145.083 0C146.469 0.361 146.765 1.331 146.823 2.313C146.905 3.704 146.995 5.137 146.762 6.499C145.237 15.497 146.302 24.449 147.198 33.393C147.968 41.078 147.961 48.752 147.398 56.441C147.37 56.821 147.364 57.203 147.329 57.992C148.145 57.661 148.829 57.564 149.247 57.179C150.228 56.276 150.792 55.111 150.838 53.732C150.978 49.542 151.276 45.35 151.212 41.163C151.18 39.105 150.672 36.998 150.048 35.017C148.628 30.517 148.573 26.051 149.713 21.388C151.772 23.851 149.809 27.326 152.476 29.979C152.742 28.639 153.119 27.698 153.076 26.777C152.964 24.395 152.836 21.991 152.406 19.652C151.496 14.696 151.094 9.763 152.164 4.791C152.246 4.408 152.344 3.98 152.578 3.689C152.799 3.416 153.224 3.13 153.535 3.154C153.848 3.178 154.304 3.523 154.395 3.821C154.564 4.366 154.615 4.993 154.535 5.561C154.326 7.044 153.99 8.509 153.76 9.989C153.295 12.952 153.641 14.814 155.069 17.166C156.557 16.957 156.868 15.727 157.052 14.586C157.258 13.314 157.194 11.998 157.262 10.703C157.321 9.62 157.325 8.501 158.602 7.878C159.709 8.833 159.707 10.037 159.498 11.196C159.055 13.649 158.565 16.099 157.964 18.517C157.238 21.423 156.228 24.262 155.607 27.187C154.396 32.881 154.155 38.668 154.42 44.476C154.433 44.73 154.668 44.974 154.935 45.48C155.388 44.94 155.936 44.577 156.043 44.111C156.727 41.2 157.347 38.272 157.918 35.337C158.488 32.408 158.89 29.444 159.527 26.531C160.336 22.829 161.298 19.161 162.224 15.486C162.412 14.736 162.738 14.022 163.253 12.582C163.669 13.825 164.079 14.421 164.014 14.96C163.669 17.827 163.266 20.689 162.772 23.533C162.087 27.464 161.304 31.378 160.567 35.301C160.418 36.098 160.274 36.903 161.562 37.477C161.896 36.426 162.24 35.424 162.535 34.409C163.979 29.42 165.416 24.428 166.847 19.433C167.09 18.585 167.157 17.317 168.314 17.572C169.7 17.878 169.094 19.111 168.932 20.075C166.496 34.578 160.313 47.426 151.674 59.185C150.076 61.359 148.425 63.496 146.714 65.581C141.189 72.312 138.027 80.107 136.324 88.553C135.199 94.132 134.147 99.725 133.094 105.317C132.953 106.06 132.989 106.837 132.924 107.893C134.573 107.317 135.222 106.248 135.904 105.161C137.765 102.199 138.441 98.869 138.865 95.491C139.592 89.722 141.156 84.146 142.559 78.532C142.921 77.086 143.184 76.997 145.042 77.342C143.29 83.446 142.19 89.658 141.514 96.445C142.538 96.021 143.149 95.94 143.499 95.595C145.393 93.738 146.64 91.514 147.284 88.91C148.333 84.678 148.135 80.4 148.092 76.1C148.054 72.279 148.54 68.502 151.051 65.34C151.34 64.976 151.724 64.687 152.186 64.247C152.85 65.649 152.562 66.789 152.164 67.911C151.798 68.946 151.268 69.936 151.009 70.995C150.686 72.314 150.344 73.729 151.814 74.902C154.049 73.369 153.18 69.777 156.226 68.571C156.286 69.24 156.472 69.784 156.349 70.245C155.989 71.591 155.37 72.878 155.097 74.237C154.637 76.54 153.78 78.628 152.379 80.505C150.129 83.522 150.416 87.021 150.185 90.553C151.983 90.901 152.998 90.025 153.724 89.011C154.461 87.982 155.068 86.767 155.386 85.543C156.67 80.62 157.791 75.655 159.032 70.72C160.135 66.325 160.995 61.943 159.815 57.404C159.61 56.615 159.836 55.715 159.883 54.226C160.758 55.039 161.369 55.336 161.477 55.76C161.819 57.102 161.998 58.489 162.189 59.864C162.361 61.109 162.465 62.363 162.62 63.794C165.349 63.01 163.882 60.162 165.509 59.103C166.899 61.617 166.691 64.724 164.919 67.514C164.01 68.948 162.97 70.302 162.083 71.749C160.78 73.873 159.536 76.037 159.474 78.789C160.854 79.291 161.525 78.291 162.14 77.493C164.408 74.55 166.288 71.39 167.555 67.864C168.882 64.167 169.701 60.382 169.981 56.471C170.009 56.074 169.974 55.633 170.138 55.296C170.288 54.987 170.646 54.631 170.952 54.588C171.273 54.543 171.888 54.778 171.95 55.007C172.235 56.041 172.605 57.135 172.518 58.173C172.193 62.077 171.066 65.818 169.635 69.441C168.535 72.222 167.178 74.899 165.961 77.635C165.658 78.319 165.459 79.051 165.148 79.942C167.639 78.912 170.312 75.892 172.13 71.557C173.495 68.3 174.415 64.856 175.664 61.099C175.965 61.967 176.242 62.476 176.309 63.011C176.983 68.469 175.266 73.287 172.154 77.654C168.026 83.446 162.643 87.845 156.59 91.506C153.437 93.414 150.381 95.488 147.316 97.538C146.579 98.032 145.883 98.653 145.329 99.344C141.694 103.852 138.051 108.353 134.527 112.948C132.994 114.949 132.153 117.261 131.999 119.878C131.775 123.649 129.041 125.037 125.699 123.246C125.178 122.968 124.677 122.595 124.265 122.171C119.274 117.02 113.221 113.302 107.233 109.493C102.676 106.594 98.1931 103.604 94.4351 99.652C91.6411 96.712 89.4601 93.418 88.1321 89.574C87.6751 88.252 87.1141 86.961 86.7331 85.619C86.0291 83.148 84.7291 81.113 82.9051 79.292C81.7231 78.113 80.8411 76.619 79.9101 75.208C79.3631 74.367 79.3861 73.495 80.4491 72.779Z" fill="white"/>
<path d="M21.297 142.162C22.221 142.162 22.977 142.96 22.977 143.927C22.977 144.137 22.935 144.347 22.893 144.473L14.828 170.56C14.576 171.4 13.82 171.988 12.937 171.988H10.039C9.15701 171.988 8.359 171.4 8.107 170.56L0.0839996 144.473C0.0419996 144.347 0 144.137 0 143.927C0 142.96 0.756 142.162 1.68 142.162H4.284C5.166 142.162 5.964 142.792 6.216 143.675L11.467 161.486L16.718 143.675C16.97 142.792 17.726 142.162 18.609 142.162H21.297Z" fill="white"/>
<path d="M48.4272 141.994C49.3092 141.994 50.0232 142.75 50.0232 143.675V146.363C50.0232 147.329 49.3092 148.043 48.4272 148.043H46.0742V165.729H48.4272C49.3092 165.729 50.0232 166.485 50.0232 167.409V170.097C50.0232 171.064 49.3092 171.778 48.4272 171.778H37.5472C36.6652 171.778 35.9512 171.064 35.9512 170.097V167.409C35.9512 166.485 36.6652 165.729 37.5472 165.729H39.9002V148.043H37.5472C36.6652 148.043 35.9512 147.329 35.9512 146.363V143.675C35.9512 142.75 36.6652 141.994 37.5472 141.994H48.4272Z" fill="white"/>
<path d="M84.338 142.162C85.262 142.162 86.018 142.96 86.018 143.927C86.018 144.137 85.976 144.347 85.934 144.473L77.869 170.56C77.617 171.4 76.861 171.988 75.978 171.988H73.08C72.198 171.988 71.4 171.4 71.148 170.56L63.125 144.473C63.083 144.347 63.041 144.137 63.041 143.927C63.041 142.96 63.797 142.162 64.721 142.162H67.325C68.207 142.162 69.005 142.792 69.257 143.675L74.508 161.486L79.759 143.675C80.011 142.792 80.767 142.162 81.65 142.162H84.338Z" fill="white"/>
<path d="M118.778 169.467C118.82 169.635 118.82 169.803 118.82 170.055C118.82 171.022 118.106 171.778 117.14 171.778H114.494C113.57 171.778 112.814 171.19 112.562 170.265L111.092 165.267H103.572L102.06 170.265C101.808 171.19 101.052 171.778 100.17 171.778H97.5658C96.5998 171.778 95.8848 171.022 95.8848 170.055C95.8848 169.803 95.8848 169.635 95.9268 169.467L103.992 143.422C104.244 142.54 105 141.952 105.925 141.952H108.781C109.705 141.952 110.461 142.54 110.713 143.422L118.778 169.467ZM107.311 152.412L105.336 159.175H109.285L107.311 152.412Z" fill="white"/>
<path d="M145.404 159.973L151.034 169.172C151.202 169.466 151.286 169.802 151.286 170.096C151.286 171.063 150.572 171.777 149.648 171.777H146.623C145.909 171.777 145.363 171.441 144.984 170.853L139.062 160.813H138.473V170.096C138.473 171.063 137.759 171.777 136.876 171.777H133.936C133.054 171.777 132.34 171.063 132.34 170.096V144.682C132.34 144.01 132.592 143.379 133.054 142.917C133.474 142.413 134.104 142.161 134.734 142.161H141.665C146.79 142.161 150.739 146.404 150.739 151.486C150.74 155.184 148.639 158.503 145.404 159.973ZM138.473 148.337V154.639H141.455C143.262 154.639 144.563 153.336 144.563 151.53C144.563 149.682 143.345 148.338 141.455 148.338H138.473V148.337Z" fill="white"/>
<path d="M176.275 141.994C177.157 141.994 177.871 142.75 177.871 143.675V146.363C177.871 147.329 177.157 148.043 176.275 148.043H173.921V165.729H176.275C177.157 165.729 177.871 166.485 177.871 167.409V170.097C177.871 171.064 177.157 171.778 176.275 171.778H165.394C164.512 171.778 163.798 171.064 163.798 170.097V167.409C163.798 166.485 164.512 165.729 165.394 165.729H167.748V148.043H165.394C164.512 148.043 163.798 147.329 163.798 146.363V143.675C163.798 142.75 164.512 141.994 165.394 141.994H176.275Z" fill="white"/>
<path d="M213.152 160.393C213.152 166.568 209.12 172.323 202.525 172.323C195.929 172.323 191.855 166.61 191.855 160.393V143.842C191.855 142.917 192.527 142.203 193.409 142.203H196.391C197.273 142.203 197.988 142.917 197.988 143.842V160.603C197.988 163.879 199.752 165.98 202.525 165.98C205.591 165.98 207.019 163.376 207.019 160.603V143.842C207.019 142.917 207.734 142.203 208.615 142.203H211.598C212.48 142.203 213.152 142.917 213.152 143.842V160.393Z" fill="white"/>
<path d="M235.872 155.394L234.318 170.138C234.15 171.105 233.394 171.777 232.511 171.777H229.739C229.235 171.777 228.814 171.609 228.521 171.273C228.226 170.895 228.058 170.433 228.101 169.886L231.208 144.01C231.292 142.875 232.133 142.077 233.225 142.077H236.628C237.51 142.077 238.266 142.665 238.518 143.548L244.105 161.527L249.65 143.506C249.902 142.666 250.701 142.078 251.583 142.078H254.649C255.783 142.078 256.624 142.876 256.708 144.011L259.816 169.887C259.858 170.434 259.69 170.896 259.396 171.274C259.102 171.61 258.681 171.778 258.177 171.778H255.279C254.355 171.778 253.557 171.064 253.473 170.097L251.876 155.353L247.214 170.56C246.962 171.442 246.205 172.03 245.323 172.03H242.466C241.585 172.03 240.828 171.442 240.576 170.602L235.872 155.394Z" fill="white"/>
</svg>
